# xmcd
#
# Track frame offsets:
#	182
#	18145
#	40307
#	58855
#	83475
#	117617
#	134687
#	149000
#	171840
#	187737
#	204980
#	222412
#	240577
#	257512
#	273665
#	289992
#	306632
#	321677
#
# Disc length: 4571 seconds
#
# Revision: 5
# Processed by: cddbd v1.5.2PL0 Copyright (c) Steve Scherf et al.
# Submitted via: audiograbber 1.83.01
#
DISCID=2111d912
DTITLE=72 Soul Classics - 72 Soul Classics - CD 1
DYEAR=1983
DGENRE=Soul
TTITLE0=Imagination - Just An Illusion
TTITLE1=Pointer Sisters - I'm So Exited
TTITLE2=Five Star - System Addict
TTITLE3=Odyssey - Going Back To My Roots
TTITLE4=KC and The Sunshine Band - You'd Gimme Some More
TTITLE5=Cameo - She's Strange
TTITLE6=Hues Corporation - Rock The Boat
TTITLE7=Aretha Franklin - Jumping Jack Flash
TTITLE8=Barry White - Let The Music Play
TTITLE9=Earth, Wind and Fire - Fantasy
TTITLE10=The Jacksons - Can You Feel It
TTITLE11=Gap Band - Burn Rubber On Me
TTITLE12=Evelyn "Champagne" King - Love Come Down
TTITLE13=Shannon - Let The Music Play
TTITLE14=Junior - Mama Used To Say
TTITLE15=Herbie Hancock - Rockit
TTITLE16=Isley Brothers - Fight The Power
TTITLE17=James Brown - Living In America
EXTD=
EXTT0=
EXTT1=
EXTT2=
EXTT3=
EXTT4=
EXTT5=
EXTT6=
EXTT7=
EXTT8=
EXTT9=
EXTT10=
EXTT11=
EXTT12=
EXTT13=
EXTT14=
EXTT15=
EXTT16=
EXTT17=
PLAYORDER=
